<svg width="20" height="20" viewBox="0 0 20 20" fill="none" xmlns="http://www.w3.org/2000/svg">
<path d="M0 10.151C0 10.0573 0 9.96877 0 9.87506C0.0884956 9.72931 0.16658 9.58355 0.260281 9.443C1.2077 8.02186 2.17074 6.60593 3.10255 5.17439C3.32119 4.83602 3.56585 4.71109 3.96148 4.71109C6.69964 4.7215 9.43779 4.71629 12.1759 4.71629C12.2488 4.71629 12.3269 4.71629 12.4258 4.71629C12.2124 4.1697 11.8584 3.80531 11.3274 3.62832C11.1192 3.56065 10.8954 3.55023 10.6767 3.519C10.4217 3.47736 10.2395 3.31078 10.1822 3.06091C10.1301 2.82665 10.2238 2.57678 10.4373 2.45705C10.5518 2.39459 10.6923 2.36335 10.8277 2.35294C11.7647 2.27486 12.4466 1.62936 12.5143 0.697553C12.5351 0.364394 12.6549 0.135346 12.962 0C13.0557 0 13.1442 0 13.2379 0C13.5659 0.119729 13.696 0.359188 13.7064 0.707965C13.7272 1.45237 14.2946 2.12389 15.0338 2.30088C15.216 2.34253 15.4086 2.34253 15.5908 2.37897C15.8667 2.43103 16.0541 2.67569 16.0489 2.95159C16.0437 3.22749 15.8459 3.46694 15.5752 3.51379C15.4919 3.52941 15.4086 3.52941 15.3254 3.53982C14.8933 3.57106 14.5237 3.74805 14.2166 4.05518C14.0292 4.23738 13.8886 4.45081 13.8053 4.72671C13.899 4.72671 13.9667 4.72671 14.0396 4.72671C14.7683 4.72671 15.4971 4.72671 16.2259 4.72671C16.4602 4.72671 16.6424 4.80999 16.7725 5.0026C17.5273 6.13222 18.2821 7.26184 19.0318 8.39146C19.3597 8.886 19.6773 9.38053 19.9948 9.88027C19.9948 9.97397 19.9948 10.0625 19.9948 10.1562C19.8855 10.2967 19.7918 10.4581 19.6668 10.583C16.6476 13.6023 13.6283 16.6216 10.6039 19.6356C10.4685 19.771 10.3071 19.8803 10.1562 20C10.0521 20 9.94794 20 9.84383 20C9.75013 19.9323 9.64081 19.8803 9.56273 19.8022C8.23529 18.48 6.90786 17.1577 5.58563 15.8303C5.53358 15.7782 5.49714 15.7002 5.45549 15.6429C4.98699 16.0073 4.75273 16.4758 4.73191 17.0276C4.7215 17.3243 4.58095 17.5325 4.33628 17.6158C3.93545 17.7512 3.58147 17.4649 3.56065 17.0016C3.52941 16.2467 3.04008 15.5908 2.32171 15.3774C2.1291 15.3201 1.92608 15.3097 1.72827 15.2837C1.45237 15.2473 1.23373 15.0286 1.21812 14.7527C1.19729 14.4716 1.36387 14.2166 1.63457 14.1489C1.73347 14.1229 1.83758 14.1229 1.9417 14.1124C2.44664 14.0656 2.85268 13.8417 3.18063 13.4461C3.12337 13.3837 3.07652 13.3316 3.02447 13.2847C2.12389 12.3842 1.21812 11.4836 0.317543 10.5778C0.192608 10.4425 0.104112 10.2915 0 10.151ZM9.96877 17.4545C9.98438 17.4545 10 17.4597 10.0156 17.4597C10.7704 15.1796 11.52 12.8995 12.2749 10.6091C10.7392 10.6091 9.23477 10.6091 7.70953 10.6091C8.46955 12.9099 9.21916 15.1848 9.96877 17.4545ZM11.3431 17.1786C13.5502 14.961 15.7314 12.7746 17.9021 10.5882C17.8605 10.5882 17.7928 10.5882 17.7199 10.5882C16.3977 10.5882 15.0807 10.5934 13.7585 10.5882C13.5763 10.5882 13.493 10.6351 13.4305 10.8173C12.8527 12.5976 12.2644 14.3675 11.6762 16.1426C11.5669 16.481 11.4576 16.8194 11.3431 17.1786ZM2.09266 10.6039C2.58719 11.1088 3.08693 11.6189 3.57106 12.1135C3.65955 12.025 3.73764 11.9053 3.84695 11.8324C4.23217 11.5825 4.70588 11.8636 4.72671 12.3425C4.76835 13.2327 5.34097 13.9094 6.18948 14.0708C6.31442 14.0968 6.44977 14.0864 6.5747 14.1072C6.83498 14.1489 7.02238 14.3259 7.06923 14.5705C7.11609 14.8256 7.02238 15.0442 6.79854 15.19C6.7621 15.2108 6.72566 15.2316 6.74128 15.2264C7.37637 15.8667 8.00625 16.507 8.62572 17.1369C8.62572 17.1317 8.62051 17.1057 8.6153 17.0796C7.91775 14.9662 7.2202 12.8527 6.52264 10.734C6.481 10.6039 6.40812 10.5882 6.2936 10.5882C4.93493 10.5934 3.57626 10.5882 2.21759 10.5882C2.16554 10.5986 2.11348 10.6039 2.09266 10.6039ZM9.99479 6.36127C9.30245 7.39198 8.63092 8.39146 7.94898 9.40656C9.32327 9.40656 10.6715 9.40656 12.0406 9.40656C11.3535 8.38105 10.6819 7.38678 9.99479 6.36127ZM18.2978 9.41177C17.6054 8.37585 16.9391 7.38157 16.2572 6.36127C15.57 7.38157 14.8985 8.38626 14.2113 9.41177C15.5856 9.41177 16.9235 9.41177 18.2978 9.41177ZM5.77824 9.41177C5.08589 8.38105 4.41437 7.38157 3.72723 6.36127C3.04008 7.39198 2.37376 8.39146 1.68662 9.41177C3.07132 9.41177 4.40916 9.41177 5.77824 9.41177ZM11.0984 5.90318C11.7855 6.92348 12.4518 7.91255 13.1286 8.92244C13.8157 7.90213 14.4768 6.91307 15.1588 5.90318C13.7949 5.90318 12.4623 5.90318 11.0984 5.90318ZM6.86101 8.92244C7.53774 7.91255 8.20927 6.91827 8.886 5.90838C7.52212 5.90838 6.19469 5.90838 4.83602 5.90838C5.51796 6.91827 6.17907 7.90734 6.86101 8.92244ZM13.113 2.42582C12.9464 2.5924 12.7538 2.78501 12.5976 2.94118C12.759 3.10255 12.9516 3.29516 13.1182 3.46174C13.2795 3.29516 13.4721 3.10255 13.6231 2.94118C13.4617 2.78501 13.2743 2.5924 13.113 2.42582ZM4.13326 15.2056C4.30505 15.0338 4.49766 14.8464 4.65383 14.6955C4.49245 14.5289 4.31026 14.3311 4.15929 14.1697C3.9823 14.3519 3.7949 14.5445 3.63873 14.7007C3.78969 14.8568 3.97189 15.0442 4.13326 15.2056Z" fill="#7374FF"/>
</svg>
