<svg width="19" height="20" viewBox="0 0 19 20" fill="none" xmlns="http://www.w3.org/2000/svg">
<path d="M18.0641 5.70058C18.0641 5.03953 18.0667 4.38108 18.0667 3.72003C18.0667 3.22229 17.823 2.96565 17.3253 2.93454C17.1697 2.92417 17.0142 2.9164 16.8586 2.90603C16.3998 2.8801 15.9254 2.85159 15.4666 2.79456C14.0563 2.62087 12.8172 2.28645 11.6765 1.77317C10.7874 1.37395 10.1548 0.933247 9.68301 0.388853C9.60006 0.292936 9.50414 0.215165 9.41082 0.139987C9.37193 0.108879 9.33305 0.0777706 9.29675 0.0466623L9.24231 0H8.83272L8.77828 0.04407C8.74717 0.0699935 8.71607 0.0933247 8.68236 0.119248C8.60978 0.17628 8.5346 0.235904 8.46201 0.300713C8.36091 0.391445 8.265 0.487362 8.17167 0.580687C7.98761 0.762152 7.81393 0.933247 7.6195 1.07323C6.57219 1.83798 5.35119 2.21387 4.40239 2.45755C3.23842 2.75567 2.01224 2.9164 0.754951 2.93714C0.262404 2.94491 0.00316843 3.20933 0.00316843 3.70188C0.00316843 4.26183 0.00316843 4.82437 0.000576078 5.38432C0.000576078 6.93714 -0.00460863 8.54439 0.0161302 10.1231C0.0239073 10.7246 0.0964931 11.3519 0.233888 11.9819C0.449053 12.9721 0.835314 13.9132 1.38489 14.7764C1.89299 15.58 2.55923 16.3422 3.36286 17.0473C4.87679 18.3746 6.70958 19.3571 8.8068 19.9689C8.87679 19.9896 8.95456 20 9.03492 20C9.13084 20 9.23194 19.987 9.32527 19.9585C11.6428 19.2612 13.5275 18.1983 15.0855 16.7077C16.0654 15.7693 16.8146 14.7297 17.3097 13.6176C17.8204 12.4692 18.0771 11.2093 18.0693 9.87427C18.0589 8.47959 18.0615 7.06675 18.0641 5.70058ZM16.685 10.2216C16.6616 11.9378 16.0472 13.5269 14.8548 14.9449C13.6649 16.3629 12.0991 17.4465 10.0719 18.2528C9.92669 18.3098 9.77634 18.3616 9.62857 18.4135C9.49118 18.4601 9.3486 18.5094 9.20861 18.5638C9.09714 18.6079 8.99604 18.6053 8.86124 18.5612C6.88068 17.9132 5.27601 16.9877 3.95391 15.7304C2.63181 14.4731 1.83855 13.0862 1.52747 11.4841C1.43674 11.0227 1.39008 10.5431 1.38748 10.0557C1.37452 8.63253 1.37452 7.18341 1.37712 5.78095C1.37712 5.2884 1.37712 4.79585 1.37971 4.30071C4.01095 4.08036 6.74588 3.59041 9.04789 1.70318C9.6545 2.26053 10.4115 2.72715 11.3551 3.12378C12.6201 3.65781 14.0174 4.01296 15.5106 4.18406C15.8165 4.21776 16.1276 4.24627 16.4309 4.2722C16.519 4.27997 16.6046 4.28775 16.6927 4.29553C16.6927 4.86325 16.6927 5.43616 16.6953 5.99352C16.6979 7.38043 16.7031 8.814 16.685 10.2216Z" fill="#7374FF"/>
<path d="M11.4484 8.82433C11.3655 8.82174 11.2825 8.82174 11.197 8.82174C11.197 8.77767 11.197 8.7336 11.197 8.69212C11.1995 8.4614 11.1995 8.24623 11.1944 8.02588C11.1788 7.48408 10.9792 6.97339 10.6292 6.58454C10.2793 6.19309 9.79968 5.94941 9.27861 5.90015C8.14057 5.78868 7.15548 6.49899 6.93513 7.58778C6.88069 7.85479 6.88069 8.12699 6.88069 8.39141C6.88069 8.50028 6.88069 8.61435 6.8755 8.72323C6.87291 8.75693 6.87291 8.79063 6.87291 8.82174C6.7744 8.82174 6.68367 8.81914 6.58775 8.82433C6.17038 8.84247 5.90078 9.11986 5.90078 9.52945C5.89819 10.8282 5.89819 12.1374 5.90078 13.418C5.90078 13.8353 6.18334 14.1153 6.59812 14.1179C7.41471 14.1205 8.24686 14.1205 9.08937 14.1205C9.87485 14.1205 10.6681 14.1205 11.464 14.1179C11.8917 14.1179 12.1691 13.8379 12.1717 13.4076C12.1769 12.1037 12.1769 10.8023 12.1717 9.53723C12.1691 9.10949 11.8917 8.8347 11.4484 8.82433ZM9.13085 7.25595C9.51193 7.30521 9.80745 7.62666 9.81782 7.99996C9.82301 8.2229 9.82301 8.44584 9.82042 8.68175C9.82042 8.72582 9.82042 8.76989 9.82042 8.81396H8.23908C8.24167 8.74915 8.24167 8.68693 8.24167 8.62472C8.24686 8.33437 8.24945 8.05958 8.2987 7.79516C8.36092 7.45038 8.742 7.20411 9.13085 7.25595ZM10.7977 10.2112V12.7517H7.27991V10.2112H10.7977Z" fill="#7374FF"/>
</svg>
