<svg width="56" height="55" viewBox="0 0 56 55" fill="none" xmlns="http://www.w3.org/2000/svg">
<path d="M0.00710698 27.484C0.00710698 22.4061 -0.00888372 17.3282 0.00710698 12.2503C0.0390884 6.24327 4.02077 1.38962 9.87337 0.220256C10.6729 0.0600699 11.5044 0.012014 12.3199 0.012014C22.442 -0.00400466 32.5802 -0.00400466 42.7183 0.012014C48.7787 0.0280326 53.6399 3.98464 54.8072 9.86348C54.9831 10.7926 54.9991 11.7697 54.9991 12.7308C55.0151 22.7264 55.0151 32.7061 54.9991 42.7017C54.9991 48.7087 51.0014 53.6104 45.1328 54.7797C44.3173 54.9399 43.4698 54.988 42.6383 54.988C32.5642 55.004 22.49 55.004 12.4159 54.988C6.30744 54.988 1.44627 51.0474 0.246967 45.1525C0.0870604 44.3516 0.0390884 43.5347 0.0390884 42.7177C0.00710697 37.6398 0.00710698 32.5619 0.00710698 27.484ZM51.1613 37.6718C51.1773 37.3354 51.1933 37.1753 51.1933 37.0311C51.1933 28.7815 51.1933 20.5159 51.1933 12.2663C51.1933 11.8017 51.1773 11.3372 51.0974 10.8887C50.3458 6.65975 47.0197 3.84047 42.7023 3.84047C32.5802 3.82445 22.474 3.84047 12.3519 3.84047C11.8882 3.84047 11.4245 3.84047 10.9767 3.92056C6.75518 4.60936 3.87686 7.9893 3.86086 12.2663C3.84487 20.4678 3.86086 28.6533 3.86086 36.8549C3.86086 37.0151 3.87685 37.1913 3.90884 37.4636C4.10072 37.2393 4.24464 37.0952 4.35658 36.951C5.92366 35.0608 7.49075 33.1546 9.07383 31.2804C12.272 27.468 17.293 27.484 20.4432 31.3285C21.1308 32.1774 21.8344 33.0264 22.57 33.9075C22.8098 33.6351 23.0177 33.3949 23.2256 33.1546C25.3524 30.7197 27.4791 28.2849 29.6219 25.8501C32.6921 22.358 37.6972 22.342 40.7674 25.818C42.8622 28.2048 44.9569 30.6076 47.0517 32.9944C48.379 34.5001 49.7062 36.0379 51.1613 37.6718ZM27.3992 51.1435C32.5002 51.1435 37.6012 51.1595 42.7023 51.1435C47.0197 51.1275 50.4897 48.0199 50.9854 43.7589C51.0014 43.5507 50.9215 43.2784 50.7935 43.1182C46.4121 38.1043 42.0307 33.1065 37.6012 28.1247C37.2175 27.6922 36.6258 27.3238 36.0661 27.1476C34.643 26.6991 33.4436 27.1476 32.4682 28.2689C29.6539 31.4886 26.8395 34.7244 24.0251 37.9281C23.0177 39.0815 21.7704 39.0494 20.811 37.8961C19.6117 36.4544 18.4284 34.9967 17.2131 33.555C15.8219 31.9051 13.4713 31.8891 12.0961 33.539C9.44162 36.7428 6.80315 39.9465 4.18068 43.1823C4.03676 43.3745 3.95681 43.6948 3.98879 43.9351C4.62842 48.1801 8.00245 51.1115 12.3199 51.1275C17.325 51.1595 22.3621 51.1435 27.3992 51.1435Z" fill="#7374FF"/>
<path d="M14.7667 7.68494C18.7164 7.71698 21.8026 10.8887 21.7546 14.8453C21.7066 18.6897 18.5085 21.7813 14.6228 21.7493C10.785 21.7173 7.65081 18.4975 7.69879 14.637C7.74676 10.7285 10.8809 7.63688 14.7667 7.68494ZM14.7667 11.5134C13.0077 11.4814 11.5685 12.859 11.5366 14.605C11.5046 16.3991 12.8798 17.8568 14.6387 17.8888C16.3977 17.9209 17.8849 16.5112 17.9168 14.7652C17.9488 12.9871 16.5576 11.5454 14.7667 11.5134Z" fill="#7374FF"/>
</svg>
