<svg width="17" height="18" viewBox="0 0 17 18" fill="none" xmlns="http://www.w3.org/2000/svg">
<path d="M12.9455 17.9965C12.6591 17.9156 12.3623 17.8629 12.0897 17.7433C10.7853 17.1703 10.0917 15.7815 10.3781 14.3612C10.3816 14.3401 10.385 14.3155 10.3885 14.2803C9.91916 14.0061 9.45329 13.7354 8.98398 13.4647C7.70717 12.7228 6.42691 11.981 5.15355 11.2357C5.04312 11.1689 4.9741 11.1689 4.87058 11.2603C3.9354 12.097 2.57922 12.2306 1.49566 11.6013C0.408645 10.9685 -0.174547 9.70629 0.046307 8.47225C0.274062 7.21009 1.2472 6.2327 2.47915 6.03934C3.38327 5.89871 4.18731 6.13426 4.88093 6.74249C4.9603 6.81281 5.01897 6.8339 5.11904 6.77765C6.84446 5.77214 8.56988 4.77014 10.2987 3.76463C10.3264 3.74705 10.3574 3.72947 10.3816 3.71189C10.0089 1.78877 11.2236 0.484414 12.3934 0.12932C13.7565 -0.289057 15.2196 0.333235 15.8753 1.62704C16.5241 2.9103 16.1755 4.48536 15.054 5.37134C13.9463 6.24677 12.2588 6.25731 11.0855 5.03382C9.32216 6.05692 7.55188 7.08704 5.7678 8.12067C5.92999 8.69726 5.93689 9.27385 5.76435 9.86802C7.53808 10.8981 9.31181 11.9283 11.089 12.9619C11.4927 12.533 11.9621 12.2376 12.5176 12.0935C14.3811 11.5978 16.1997 13.0428 16.1962 15.0081C16.1928 16.5023 15.1196 17.7539 13.6633 17.9684C13.6288 17.9719 13.5977 17.9895 13.5667 18C13.3596 17.9965 13.1526 17.9965 12.9455 17.9965Z" fill="#7374FF"/>
</svg>
