<svg width="19" height="14" viewBox="0 0 19 14" fill="none" xmlns="http://www.w3.org/2000/svg">
<path d="M17.8287 3.85121L13.5542 8.03423L9.49338 12.0076L8.19656 13.2765C7.64043 13.8201 6.52938 13.8201 5.97385 13.2765L0.416781 7.83915C0.0576694 7.48777 -0.0695286 6.90941 0.0357794 6.39827C0.0925747 6.11751 0.219773 5.8565 0.416781 5.66373L1.71361 4.39541C2.26854 3.85127 3.38019 3.85127 3.93632 4.39541L7.0855 7.47671L11.409 3.2457L13.3626 1.33373L14.3091 0.408108C14.8653 -0.136036 15.9769 -0.136036 16.5319 0.408108L17.8287 1.67643C17.9801 1.82514 18.0908 2.01391 18.1594 2.22109C18.3434 2.77334 18.2328 3.45584 17.8287 3.85121Z" fill="#1877F2"/>
</svg>
