<svg width="55" height="55" viewBox="0 0 55 55" fill="none" xmlns="http://www.w3.org/2000/svg">
<path d="M55 29.9857C54.6504 30.9135 53.9513 31.2362 52.9833 31.2228C50.1869 31.1959 47.4039 31.2093 44.6075 31.2093C44.3924 31.2093 44.1907 31.2093 43.9084 31.2093C43.9084 32.2851 43.895 33.2935 43.9218 34.3155C43.9218 34.4096 44.1504 34.5575 44.2983 34.5979C47.4443 35.2971 49.7701 37.072 51.2625 39.9092C51.9212 41.1598 52.2842 42.5044 52.3246 43.9163C52.3515 44.7903 52.3649 45.6643 52.338 46.5518C52.3111 47.4931 51.612 48.1519 50.7381 48.1385C49.8643 48.1116 49.2189 47.4527 49.2055 46.5384C49.1786 45.1668 49.313 43.7684 48.8694 42.4372C48.0762 40.0302 46.4494 38.5108 43.9218 37.7712C43.9622 43.8356 41.6497 48.7032 36.7022 52.1724C33.7041 54.2701 30.3161 55.1845 26.6593 54.9693C22.1823 54.7138 18.4179 52.912 15.3929 49.6042C12.3679 46.2694 11.0504 42.3027 11.1176 37.8116C10.2303 37.946 9.50427 38.3091 8.8455 38.7797C6.84229 40.1916 5.88774 42.1682 5.83396 44.5886C5.82051 45.234 5.8474 45.8795 5.82051 46.5249C5.79362 47.4662 5.12141 48.1385 4.23408 48.125C3.37364 48.1116 2.70142 47.4527 2.67453 46.5384C2.6342 44.4676 2.59387 42.3834 3.49464 40.4336C4.91974 37.3409 7.29939 35.3912 10.6067 34.6248C11.01 34.5306 11.1176 34.3827 11.1041 33.9928C11.0773 33.0919 11.0907 32.1775 11.0907 31.2093C10.8084 31.2093 10.6067 31.2093 10.3916 31.2093C7.59517 31.2093 4.81219 31.2093 2.01576 31.2093C1.69309 31.2093 1.35698 31.1959 1.06121 31.1152C0.362101 30.9001 -0.0815626 30.1605 0.012548 29.4344C0.120103 28.6545 0.738544 28.0763 1.55865 28.0629C3.2392 28.0494 4.91974 28.0494 6.60029 28.0494C8.06572 28.0494 9.53116 28.0494 11.0369 28.0494C11.0369 26.9468 11.0369 25.8576 11.0369 24.7416C9.6656 24.4861 8.3615 24.0155 7.19184 23.2221C4.39541 21.3127 2.84931 18.6772 2.67453 15.2887C2.6342 14.455 2.6342 13.6079 2.66109 12.7607C2.67453 11.806 3.33331 11.1337 4.22063 11.1203C5.12141 11.1068 5.76674 11.806 5.82051 12.7876C5.88774 14.0785 5.83396 15.4231 6.14318 16.6602C6.76162 19.1882 8.52283 20.7211 11.0773 21.4875C11.131 20.2773 10.9697 19.0671 11.9646 18.1528C12.9326 17.2653 14.1291 17.4939 15.3526 17.4267C15.3526 17.2115 15.3526 17.0233 15.3526 16.835C15.3526 15.0466 15.3257 13.2583 15.366 11.4699C15.4198 8.48474 17.4499 5.87612 20.327 5.05589C20.5018 5.0021 20.6631 4.94831 20.8782 4.88108C20.5421 4.14152 20.2329 3.42886 19.9102 2.70275C19.3052 1.3312 19.48 0.753004 20.7303 0C20.9858 0 21.2278 0 21.4832 0C22.142 0.228591 22.5184 0.699218 22.7739 1.3312C23.1906 2.35314 23.6746 3.34818 24.1049 4.37011C24.2259 4.65249 24.3872 4.76006 24.6964 4.76006C26.5517 4.74662 28.407 4.74662 30.2624 4.76006C30.585 4.76006 30.7329 4.65249 30.8539 4.37011C31.2841 3.34818 31.7681 2.35314 32.1849 1.3312C32.4404 0.699218 32.8302 0.228591 33.4756 0C33.731 0 33.973 0 34.2285 0C35.4788 0.753004 35.6536 1.3312 35.0486 2.70275C34.7259 3.41541 34.4167 4.12808 34.0806 4.88108C34.2957 4.94831 34.4705 5.01555 34.6318 5.05589C37.5089 5.87612 39.539 8.48474 39.5928 11.4699C39.6196 13.2583 39.6062 15.0466 39.6062 16.835C39.6062 17.0233 39.6062 17.2115 39.6062 17.4267C40.8296 17.4939 42.0262 17.2653 42.9942 18.1528C43.9891 19.0671 43.8277 20.2773 43.8815 21.4337C46.2881 20.869 48.3182 18.9999 48.8156 16.6602C49.0845 15.3828 49.0576 14.0382 49.1383 12.7204C49.192 11.7791 49.8508 11.0934 50.7247 11.1068C51.5851 11.1068 52.2574 11.7657 52.2842 12.6801C52.3111 13.46 52.3111 14.2533 52.2842 15.0466C52.1364 18.731 50.4827 21.5547 47.3367 23.4373C46.3015 24.0558 45.0915 24.4054 43.9084 24.8895C43.9084 25.8307 43.9084 26.9199 43.9084 28.0225C44.1504 28.0225 44.3386 28.0225 44.5403 28.0225C47.3367 28.0225 50.1197 28.0494 52.9161 28.0091C53.8841 27.9956 54.5698 28.3049 54.9597 29.2058C55 29.4882 55 29.7302 55 29.9857ZM14.3039 20.6673C14.3039 20.8286 14.3039 20.9497 14.3039 21.0707C14.3039 26.9199 14.2905 32.7691 14.3174 38.6184C14.3174 39.5462 14.4249 40.4874 14.6131 41.3883C15.3391 44.7634 17.1272 47.5065 19.9774 49.4428C24.0242 52.1993 28.4205 52.6834 32.8706 50.653C38.0601 48.273 40.6549 44.0373 40.7086 38.336C40.7624 32.6481 40.7221 26.9602 40.7221 21.2724C40.7221 21.0841 40.7221 20.8959 40.7221 20.6942C36.8232 20.6942 32.9781 20.6942 29.1062 20.6942C29.1062 20.9362 29.1062 21.1514 29.1062 21.3665C29.1062 26.1131 29.1062 30.8463 29.1062 35.5929C29.1062 35.8753 29.0927 36.1711 29.012 36.44C28.8238 37.1258 28.2054 37.5695 27.4928 37.5695C26.7937 37.5561 26.1887 37.1258 26.014 36.4669C25.9333 36.1845 25.9198 35.8618 25.9198 35.566C25.9198 30.8194 25.9198 26.0862 25.9198 21.3396C25.9198 21.1245 25.9198 20.9228 25.9198 20.6942C22.0344 20.6673 18.2028 20.6673 14.3039 20.6673ZM36.4602 17.4267C36.4871 17.3325 36.5006 17.2519 36.5006 17.1846C36.5006 15.3559 36.5543 13.5272 36.4871 11.7119C36.4199 9.41255 34.8603 7.96033 32.5345 7.96033C30.8136 7.96033 29.0927 7.96033 27.3853 7.96033C25.651 7.96033 23.9166 7.93344 22.1823 7.97378C20.2463 8.01412 18.7002 9.35877 18.5927 11.2682C18.4717 13.2851 18.5389 15.3021 18.5389 17.3325C18.5389 17.3594 18.5792 17.3863 18.6061 17.4401C24.5485 17.4267 30.4909 17.4267 36.4602 17.4267Z" fill="#7374FF"/>
</svg>
