<svg width="19" height="18" viewBox="0 0 19 18" fill="none" xmlns="http://www.w3.org/2000/svg">
<path d="M18.0288 4.60976C17.9978 4.53215 17.969 4.45233 17.9401 4.37472C17.878 4.19734 17.8137 4.0133 17.7073 3.85588C17.4035 3.40577 16.9335 3.17738 16.306 3.17738C14.5344 3.17738 12.7627 3.17738 10.9933 3.17738H8.87805C8.86696 3.08647 8.85588 2.99778 8.84479 2.90687C8.81596 2.66741 8.78936 2.44124 8.75388 2.21064C8.73836 2.11308 8.72505 2.01552 8.71175 1.91796C8.67184 1.61863 8.62971 1.31042 8.53437 1.02439C8.36142 0.507761 7.949 0.161863 7.33925 0.0310421C7.31929 0.0266075 7.29933 0.0199557 7.27938 0.0133038C7.26829 0.00886918 7.25721 0.00665189 7.24612 0.0022173L7.23947 0H1.45011L1.44346 0.0022173C1.15521 0.0687361 0.853659 0.161863 0.603104 0.372506C0.288248 0.636364 0.0953437 0.971175 0.0288248 1.36142C0.0266075 1.37472 0.0199557 1.39024 0.0133038 1.40577C0.00886918 1.41463 0.00665188 1.4235 0.00221729 1.43459L0 1.44346V13.3769L0.00443459 13.388C0.0354767 13.4656 0.0643016 13.5455 0.0931264 13.6231C0.155211 13.8004 0.221729 13.9845 0.325942 14.1419C0.627494 14.592 1.09313 14.8182 1.71175 14.8182C2.7051 14.8182 3.70066 14.8182 4.69401 14.8182H6.00887C6.02217 14.9335 6.03769 15.0466 6.051 15.1596C6.08869 15.4656 6.12195 15.7539 6.16408 16.0466C6.17295 16.1109 6.18182 16.1796 6.18847 16.2439C6.21508 16.4678 6.2439 16.6984 6.31929 16.9135C6.55432 17.5898 7.14856 17.9956 7.90909 17.9978C8.36807 18 8.8337 18 9.2949 18C9.63193 18 9.96674 18 10.2971 18C11.1064 18 11.9135 18 12.7228 18C13.9047 18 15.1242 18 16.3259 18C17.0443 18 17.5632 17.6851 17.8714 17.0665C17.9268 16.9557 17.9579 16.8359 17.9889 16.7206C18.0022 16.6696 18.0177 16.6164 18.0333 16.5654L18.0355 16.5565V4.62084L18.0288 4.60976ZM8.2306 16.7916C8.37916 16.6186 8.52993 16.4457 8.67849 16.2727C9.1153 15.7672 9.56763 15.2417 10.0177 14.7317C10.204 14.5211 10.2705 14.306 10.235 14.0377C10.0732 12.796 9.91574 11.5322 9.76497 10.3104C9.72505 9.98448 9.68293 9.65632 9.64301 9.33038C9.52106 8.3592 9.40133 7.38581 9.2816 6.41463L9.10421 4.98448C9.08647 4.8337 9.06652 4.68293 9.04656 4.52772L9.02217 4.33925H11.102C12.8248 4.33925 14.5455 4.33925 16.2683 4.33925C16.7073 4.33925 16.8714 4.50111 16.8714 4.93792C16.8714 8.7051 16.8714 12.4701 16.8714 16.2373C16.8714 16.6785 16.7095 16.8404 16.2749 16.8404C14.2749 16.8404 12.2772 16.8404 10.2772 16.8404H8.19069C8.20621 16.8204 8.21729 16.8049 8.2306 16.7916ZM9.01552 13.6585H7.10199C5.32151 13.6585 3.54102 13.6585 1.76053 13.6585C1.32372 13.6585 1.16186 13.4945 1.16186 13.0554C1.16186 9.28825 1.16186 5.52106 1.16186 1.75388C1.16186 1.31929 1.32594 1.15521 1.76497 1.15521C2.62528 1.15521 3.48559 1.15521 4.3459 1.15521C5.20621 1.15521 6.06652 1.15521 6.92683 1.15521C7.3082 1.15521 7.47672 1.30599 7.5255 1.69401C7.64523 2.65632 7.76718 3.63636 7.8847 4.58315C7.96009 5.19069 8.03769 5.79601 8.11308 6.40355C8.21951 7.25055 8.32372 8.09756 8.42794 8.94678C8.5255 9.73392 8.62306 10.5188 8.72062 11.306C8.78936 11.8492 8.85588 12.3947 8.92683 12.9446C8.95565 13.184 8.98448 13.4213 9.01552 13.6585ZM8.39246 14.8293L7.33259 16.0532L7.1796 14.8293H8.39246Z" fill="#7374FF"/>
<path d="M10.9934 9.02663C11.1952 9.03993 11.2484 9.12641 11.295 9.31709C11.3038 9.357 11.3193 9.39691 11.3349 9.43239C11.3393 9.4457 11.346 9.45678 11.3504 9.47009C11.5921 10.1042 11.9402 10.6985 12.4125 11.2861C12.4058 11.2927 12.3992 11.2994 12.3903 11.3038C12.3504 11.337 12.3171 11.3681 12.2817 11.3969C12.1553 11.4989 12.0311 11.6009 11.9047 11.7029C11.7029 11.867 11.4967 12.0355 11.2927 12.2018C11.0954 12.3637 11.0222 12.5699 11.0799 12.8005C11.1353 13.0288 11.2905 13.1774 11.5256 13.2306C11.5655 13.2395 11.6076 13.2439 11.6475 13.2439C11.785 13.2439 11.918 13.1885 12.0577 13.0754C12.3437 12.8426 12.632 12.6098 12.9202 12.3747L13.2218 12.1308C13.2329 12.1397 13.2417 12.1486 13.2528 12.1574C13.2994 12.1974 13.3437 12.2351 13.3903 12.2727C13.4834 12.3481 13.5743 12.4235 13.6652 12.4989C13.8981 12.6896 14.1397 12.8869 14.3792 13.0798C14.5344 13.204 14.7096 13.2594 14.8737 13.2417C15.02 13.224 15.1486 13.1486 15.2484 13.0222C15.4546 12.7561 15.3992 12.4169 15.1065 12.1796C15.0777 12.1552 15.0466 12.1331 15.0178 12.1087C14.989 12.0865 14.9579 12.0621 14.9291 12.0377C14.6963 11.847 14.4635 11.6563 14.2284 11.4657L14.0178 11.2949C14.0244 11.2838 14.0289 11.275 14.0355 11.2683C14.5832 10.5854 14.9668 9.88029 15.204 9.11532C15.2218 9.05767 15.244 9.05545 15.3105 9.05323C15.3216 9.05323 15.3304 9.05323 15.3415 9.05102C15.6431 9.02884 15.8759 8.80046 15.8936 8.50778C15.9114 8.21731 15.6963 7.95124 15.4058 7.90468C15.346 7.89581 15.2839 7.89581 15.2262 7.89581C15.2129 7.89581 15.1996 7.89581 15.1885 7.89581C14.8293 7.89581 14.4701 7.89581 14.1043 7.89581H13.7961C13.7961 7.85811 13.7961 7.82264 13.7961 7.78716C13.7961 7.67186 13.7983 7.56099 13.7938 7.45013C13.7872 7.10645 13.5455 6.85368 13.2196 6.84924C13.2174 6.84924 13.2151 6.84924 13.2129 6.84924C12.8848 6.84924 12.6409 7.10423 12.6342 7.45678C12.632 7.56765 12.632 7.67629 12.6342 7.79159C12.6342 7.82707 12.6342 7.86033 12.6342 7.89581H12.479C12.3437 7.89581 12.2107 7.89581 12.0754 7.89581C11.7606 7.89581 11.4346 7.89359 11.1131 7.89802C10.8116 7.90246 10.5677 8.12197 10.5366 8.41687C10.5211 8.5743 10.5699 8.7406 10.6719 8.86033C10.7584 8.96011 10.8715 9.01998 10.9934 9.02663ZM12.4413 9.05767H13.989C13.8094 9.53882 13.5544 9.98893 13.2174 10.4302C12.8892 10.0111 12.6342 9.56099 12.4413 9.05767Z" fill="#7374FF"/>
<path d="M5.92016 4.22844C5.85142 3.88475 5.63413 3.70737 5.27714 3.70515C5.00441 3.70294 4.71617 3.70294 4.36583 3.70515C3.98668 3.70737 3.78269 3.87589 3.7073 4.25283C3.37914 5.88032 3.04211 7.5566 2.67847 9.37921C2.60974 9.71624 2.80486 10.0244 3.1308 10.0932C3.16849 10.1021 3.20619 10.1043 3.24388 10.1043C3.50996 10.1043 3.74943 9.90914 3.81595 9.61868C3.8359 9.53442 3.85142 9.45016 3.86694 9.36812C3.87581 9.31934 3.88468 9.27278 3.89355 9.224C3.95563 8.91358 4.01994 8.60094 4.08202 8.29052L4.13745 8.01114H5.49444C5.52326 8.16192 5.5543 8.31048 5.58313 8.45903C5.66073 8.85371 5.73612 9.22622 5.81373 9.60538C5.88246 9.9424 6.17293 10.1508 6.48779 10.0932C6.64521 10.0644 6.78047 9.97788 6.86694 9.84928C6.95563 9.71846 6.98668 9.55438 6.95342 9.3903C6.61417 7.67189 6.26606 5.93575 5.92016 4.22844ZM5.2594 6.84041H4.37027L4.76495 4.86923L4.86251 4.86258L5.2594 6.84041Z" fill="#7374FF"/>
</svg>
