<svg width="22" height="14" viewBox="0 0 22 14" fill="none" xmlns="http://www.w3.org/2000/svg">
<path d="M7.5 12.8333C7.5 13.4777 8.02234 14 8.66667 14H20.3333C20.9777 14 21.5 13.4777 21.5 12.8333C21.5 12.189 20.9777 11.6667 20.3333 11.6667H8.66667C8.02234 11.6667 7.5 12.189 7.5 12.8333ZM0.5 7C0.5 7.64433 1.02234 8.16667 1.66667 8.16667H20.3333C20.9777 8.16667 21.5 7.64433 21.5 7C21.5 6.35567 20.9777 5.83333 20.3333 5.83333H1.66667C1.02234 5.83333 0.5 6.35567 0.5 7ZM7.5 1.16667C7.5 1.811 8.02234 2.33333 8.66667 2.33333H20.3333C20.9777 2.33333 21.5 1.811 21.5 1.16667C21.5 0.522334 20.9777 0 20.3333 0H8.66667C8.02234 0 7.5 0.522334 7.5 1.16667Z" fill="#4B4B4B"/>
</svg>
